<svg xmlns="http://www.w3.org/2000/svg" viewBox="0 0 64 64" role="img" aria-label="Reigner">
  <rect x="2" y="2" width="60" height="60" rx="15" fill="#1e293b"/>
  <g stroke="#d4a24e" stroke-width="3" stroke-linejoin="round" stroke-linecap="round">
    <rect x="10" y="36" width="44" height="16" rx="2" fill="none"/>
    <line x1="22" y1="36" x2="22" y2="24"/>
    <line x1="32" y1="36" x2="32" y2="18"/>
    <line x1="42" y1="36" x2="42" y2="24"/>
    <g fill="#d4a24e" stroke="none">
      <path d="M18 44 l4 -4 l4 4 l-4 4 z"/>
      <path d="M28 44 l4 -4 l4 4 l-4 4 z"/>
      <path d="M38 44 l4 -4 l4 4 l-4 4 z"/>
      <path d="M17.5 20 l4.5 -4.5 l4.5 4.5 l-4.5 4.5 z"/>
      <path d="M27.5 15 l4.5 -4.5 l4.5 4.5 l-4.5 4.5 z"/>
      <path d="M37.5 20 l4.5 -4.5 l4.5 4.5 l-4.5 4.5 z"/>
    </g>
  </g>
</svg>
